<svg width="900" height="1125" viewBox="0 0 900 1125" fill="none" xmlns="http://www.w3.org/2000/svg">
  <defs>
    <linearGradient id="bg" x1="86" y1="0" x2="788" y2="1125" gradientUnits="userSpaceOnUse">
      <stop stop-color="#233527"/>
      <stop offset="0.52" stop-color="#11160F"/>
      <stop offset="1" stop-color="#050505"/>
    </linearGradient>
    <radialGradient id="sun" cx="0" cy="0" r="1" gradientUnits="userSpaceOnUse" gradientTransform="translate(665 218) rotate(120) scale(410)">
      <stop stop-color="#E5B15C" stop-opacity=".9"/>
      <stop offset="1" stop-color="#E5B15C" stop-opacity="0"/>
    </radialGradient>
  </defs>
  <rect width="900" height="1125" fill="url(#bg)"/>
  <rect width="900" height="1125" fill="url(#sun)"/>
  <path d="M0 732C182 626 363 610 539 678C673 730 791 716 900 650V1125H0V732Z" fill="#070807"/>
  <path d="M188 524C267 448 341 412 452 420C544 427 616 463 711 540" stroke="#B5C6A1" stroke-opacity=".25" stroke-width="12" stroke-linecap="round"/>
  <path d="M422 280C382 328 363 393 363 476C363 559 388 630 438 688" stroke="#D8D1B9" stroke-width="20" stroke-linecap="round"/>
  <path d="M500 270C540 330 558 394 555 462C552 543 522 614 465 676" stroke="#D8D1B9" stroke-opacity=".78" stroke-width="20" stroke-linecap="round"/>
  <path d="M286 600C386 557 499 553 620 603" stroke="#FFD400" stroke-opacity=".55" stroke-width="8" stroke-linecap="round"/>
  <text x="62" y="820" fill="white" font-family="Arial, Helvetica, sans-serif" font-size="68" font-weight="900">THE LAST OF US</text>
  <text x="62" y="905" fill="#FFD400" font-family="Arial, Helvetica, sans-serif" font-size="84" font-weight="900">PART II</text>
  <text x="62" y="982" fill="#D7DEEA" font-family="Arial, Helvetica, sans-serif" font-size="32" font-weight="700">Remastered • PS5</text>
</svg>
